<svg width="29" height="29" viewBox="0 0 29 29" fill="none" xmlns="http://www.w3.org/2000/svg">
<path fill-rule="evenodd" clip-rule="evenodd" d="M14.0153 13.6936L12.7938 17.5984L16.6975 16.3757L17.9201 12.4709L14.0153 13.6936ZM11.4591 19.8069C11.2305 19.8069 11.0065 19.717 10.8396 19.5514C10.6098 19.3204 10.5258 18.9809 10.6238 18.6717L12.4823 12.7345C12.5675 12.4592 12.7821 12.2457 13.0551 12.1605L18.9923 10.302C19.3038 10.2029 19.6421 10.288 19.8731 10.5179C20.103 10.7489 20.187 11.0884 20.089 11.3975L18.2316 17.3347C18.1465 17.6089 17.9306 17.8235 17.6576 17.9087L11.7205 19.7672C11.6341 19.794 11.5455 19.8069 11.4591 19.8069Z" fill="#61646B"/>
<mask id="mask0_76_2848" style="mask-type:luminance" maskUnits="userSpaceOnUse" x="3" y="2" width="25" height="26">
<path fill-rule="evenodd" clip-rule="evenodd" d="M3.26855 2.94635H27.444V27.1217H3.26855V2.94635Z" fill="white"/>
</mask>
<g mask="url(#mask0_76_2848)">
<path fill-rule="evenodd" clip-rule="evenodd" d="M15.3564 4.69635C9.65605 4.69635 5.01855 9.33502 5.01855 15.0342C5.01855 20.7345 9.65605 25.372 15.3564 25.372C21.0567 25.372 25.6942 20.7345 25.6942 15.0342C25.6942 9.33502 21.0567 4.69635 15.3564 4.69635ZM15.3564 27.122C8.69122 27.122 3.26855 21.6993 3.26855 15.0342C3.26855 8.36902 8.69122 2.94635 15.3564 2.94635C22.0216 2.94635 27.4442 8.36902 27.4442 15.0342C27.4442 21.6993 22.0216 27.122 15.3564 27.122Z" fill="#61646B"/>
</g>
</svg>
