<svg width="30" height="30" viewBox="0 0 30 30" fill="none" xmlns="http://www.w3.org/2000/svg">
<path fill-rule="evenodd" clip-rule="evenodd" d="M19.7388 15.9375H4.6875C4.17 15.9375 3.75 15.5175 3.75 15C3.75 14.4825 4.17 14.0625 4.6875 14.0625H19.7388C20.2563 14.0625 20.6763 14.4825 20.6763 15C20.6763 15.5175 20.2563 15.9375 19.7388 15.9375Z" fill="#61646B"/>
<path fill-rule="evenodd" clip-rule="evenodd" d="M16.0793 19.5813C15.8393 19.5813 15.598 19.49 15.4155 19.305C15.0493 18.9375 15.0518 18.345 15.418 17.98L18.4105 15L15.418 12.0188C15.0518 11.6538 15.0493 11.0613 15.4155 10.6938C15.7818 10.3263 16.3743 10.3263 16.7405 10.6913L20.4018 14.3363C20.5793 14.5113 20.678 14.7513 20.678 15C20.678 15.2488 20.5793 15.4888 20.4018 15.6638L16.7405 19.3075C16.558 19.49 16.318 19.5813 16.0793 19.5813Z" fill="#61646B"/>
<path fill-rule="evenodd" clip-rule="evenodd" d="M21.3023 27.5H15.196C12.1473 27.5 9.66602 25.0187 9.66602 21.9688V20.7913C9.66602 20.2738 10.086 19.8538 10.6035 19.8538C11.121 19.8538 11.541 20.2738 11.541 20.7913V21.9688C11.541 23.9837 13.181 25.625 15.196 25.625H21.3023C23.326 25.625 24.9723 23.98 24.9723 21.955V8.03125C24.9723 6.01625 23.331 4.375 21.316 4.375H15.2098C13.1873 4.375 11.541 6.02 11.541 8.0425V9.20875C11.541 9.72625 11.121 10.1463 10.6035 10.1463C10.086 10.1463 9.66602 9.72625 9.66602 9.20875V8.0425C9.66602 4.98625 12.1535 2.5 15.2098 2.5H21.316C24.3648 2.5 26.8473 4.98125 26.8473 8.03125V21.955C26.8473 25.0125 24.3585 27.5 21.3023 27.5Z" fill="#61646B"/>
</svg>
