<svg width="29" height="29" viewBox="0 0 29 29" fill="none" xmlns="http://www.w3.org/2000/svg">
<path fill-rule="evenodd" clip-rule="evenodd" d="M5.23389 10.7362C5.23389 7.36945 7.99213 4.61121 11.3589 4.61121H18.3589C21.7257 4.61121 24.4839 7.36945 24.4839 10.7362V16.8612H17.1922C16.709 16.8612 16.3172 17.253 16.3172 17.7362C16.3172 18.5363 15.659 19.1945 14.8589 19.1945C14.0588 19.1945 13.4006 18.5363 13.4006 17.7362C13.4006 17.253 13.0088 16.8612 12.5256 16.8612H5.23389V10.7362ZM3.48389 17.7362C3.48389 22.0694 7.02564 25.6112 11.3589 25.6112H18.3589C22.6921 25.6112 26.2339 22.0694 26.2339 17.7362V10.7362C26.2339 6.40296 22.6921 2.86121 18.3589 2.86121H11.3589C7.02564 2.86121 3.48389 6.40296 3.48389 10.7362V17.7362ZM5.29676 18.6112H11.7722C12.1549 19.9551 13.3954 20.9445 14.8589 20.9445C16.3224 20.9445 17.5629 19.9551 17.9455 18.6112H24.421C23.9927 21.568 21.4287 23.8612 18.3589 23.8612H11.3589C8.28902 23.8612 5.72508 21.568 5.29676 18.6112Z" fill="#61646B"/>
</svg>
