<svg width="28" height="28" viewBox="0 0 28 28" fill="none" xmlns="http://www.w3.org/2000/svg">
<path fill-rule="evenodd" clip-rule="evenodd" d="M13.708 18.8466C13.225 18.8466 12.833 18.4546 12.833 17.9716V9.42346C12.833 8.94046 13.225 8.54846 13.708 8.54846C14.191 8.54846 14.583 8.94046 14.583 9.42346V17.9716C14.583 18.4546 14.191 18.8466 13.708 18.8466Z" fill="#61646B"/>
<path fill-rule="evenodd" clip-rule="evenodd" d="M17.9858 14.5719H9.43066C8.9465 14.5719 8.55566 14.1799 8.55566 13.6969C8.55566 13.2139 8.9465 12.8219 9.43066 12.8219H17.9858C18.4688 12.8219 18.8608 13.2139 18.8608 13.6969C18.8608 14.1799 18.4688 14.5719 17.9858 14.5719Z" fill="#61646B"/>
<path fill-rule="evenodd" clip-rule="evenodd" d="M8.24117 2.91663C5.00717 2.91663 2.9165 5.12979 2.9165 8.55746V18.8591C2.9165 22.2868 5.00717 24.5 8.24117 24.5H19.1752C22.4103 24.5 24.4998 22.2868 24.4998 18.8591V8.55746C24.4998 5.12979 22.4103 2.91663 19.1752 2.91663H8.24117ZM19.1752 26.25H8.24117C4.00967 26.25 1.1665 23.2796 1.1665 18.8591V8.55746C1.1665 4.13696 4.00967 1.16663 8.24117 1.16663H19.1752C23.4067 1.16663 26.2498 4.13696 26.2498 8.55746V18.8591C26.2498 23.2796 23.4067 26.25 19.1752 26.25Z" fill="#61646B"/>
</svg>
