<svg width="29" height="29" viewBox="0 0 29 29" fill="none" xmlns="http://www.w3.org/2000/svg">
<mask id="mask0_76_2831" style="mask-type:luminance" maskUnits="userSpaceOnUse" x="4" y="17" width="20" height="9">
<path fill-rule="evenodd" clip-rule="evenodd" d="M4.88428 17.2186H23.3642V25.8216H4.88428V17.2186Z" fill="white"/>
</mask>
<g mask="url(#mask0_76_2831)">
<path fill-rule="evenodd" clip-rule="evenodd" d="M14.1254 18.9686C9.15428 18.9686 6.63428 19.8226 6.63428 21.5085C6.63428 23.2095 9.15428 24.0716 14.1254 24.0716C19.0954 24.0716 21.6143 23.2176 21.6143 21.5318C21.6143 19.8308 19.0954 18.9686 14.1254 18.9686ZM14.1254 25.8216C11.8399 25.8216 4.88428 25.8216 4.88428 21.5085C4.88428 17.6631 10.1588 17.2186 14.1254 17.2186C16.4109 17.2186 23.3643 17.2186 23.3643 21.5318C23.3643 25.3771 18.0909 25.8216 14.1254 25.8216Z" fill="#61646B"/>
</g>
<mask id="mask1_76_2831" style="mask-type:luminance" maskUnits="userSpaceOnUse" x="7" y="2" width="14" height="14">
<path fill-rule="evenodd" clip-rule="evenodd" d="M7.9292 2.63995H20.3192V15.0283H7.9292V2.63995Z" fill="white"/>
</mask>
<g mask="url(#mask1_76_2831)">
<path fill-rule="evenodd" clip-rule="evenodd" d="M14.1254 4.30547C11.6276 4.30547 9.59524 6.33663 9.59524 8.83447C9.58707 11.3241 11.6042 13.3541 14.0916 13.3635L14.1254 14.1965V13.3635C16.6221 13.3635 18.6532 11.3311 18.6532 8.83447C18.6532 6.33663 16.6221 4.30547 14.1254 4.30547ZM14.1254 15.0283H14.0881C10.6791 15.0178 7.91757 12.2376 7.92924 8.83097C7.92924 5.41847 10.7082 2.63947 14.1254 2.63947C17.5414 2.63947 20.3192 5.41847 20.3192 8.83447C20.3192 12.2505 17.5414 15.0283 14.1254 15.0283Z" fill="#61646B"/>
</g>
</svg>
