<svg width="29" height="29" viewBox="0 0 29 29" fill="none" xmlns="http://www.w3.org/2000/svg">
<path fill-rule="evenodd" clip-rule="evenodd" d="M16.6484 10.4623C16.1654 10.4623 15.7734 10.0703 15.7734 9.58732V6.76282C15.7734 6.27982 16.1654 5.88782 16.6484 5.88782C17.1314 5.88782 17.5234 6.27982 17.5234 6.76282V9.58732C17.5234 10.0703 17.1314 10.4623 16.6484 10.4623Z" fill="#61646B"/>
<path fill-rule="evenodd" clip-rule="evenodd" d="M16.6484 25.7612C16.1654 25.7612 15.7734 25.3692 15.7734 24.8862V22.526C15.7734 22.0418 16.1654 21.651 16.6484 21.651C17.1314 21.651 17.5234 22.0418 17.5234 22.526V24.8862C17.5234 25.3692 17.1314 25.7612 16.6484 25.7612Z" fill="#61646B"/>
<path fill-rule="evenodd" clip-rule="evenodd" d="M16.6484 19.3923C16.1654 19.3923 15.7734 19.0003 15.7734 18.5173V12.8928C15.7734 12.4098 16.1654 12.0178 16.6484 12.0178C17.1314 12.0178 17.5234 12.4098 17.5234 12.8928V18.5173C17.5234 19.0003 17.1314 19.3923 16.6484 19.3923Z" fill="#61646B"/>
<mask id="mask0_76_2863" style="mask-type:luminance" maskUnits="userSpaceOnUse" x="1" y="5" width="27" height="22">
<path fill-rule="evenodd" clip-rule="evenodd" d="M1.94873 5.59631H27.0321V26.0126H1.94873V5.59631Z" fill="white"/>
</mask>
<g mask="url(#mask0_76_2863)">
<path fill-rule="evenodd" clip-rule="evenodd" d="M3.69873 19.0756V21.3378C3.69873 22.9501 5.03223 24.2626 6.6714 24.2626H22.3094C23.9486 24.2626 25.2821 22.9501 25.2821 21.3378V19.0756C23.8226 18.6918 22.7422 17.3711 22.7422 15.8054C22.7422 14.2386 23.8214 12.9191 25.2821 12.5353L25.2809 10.2708C25.2809 8.65845 23.9474 7.34595 22.3082 7.34595H6.67256C5.0334 7.34595 3.6999 8.65845 3.6999 10.2708L3.69873 12.6251C5.1769 12.9879 6.23856 14.2549 6.23856 15.8054C6.23856 17.3711 5.15823 18.6918 3.69873 19.0756ZM22.3094 26.0126H6.6714C4.0674 26.0126 1.94873 23.9149 1.94873 21.3378V18.3138C1.94873 17.8308 2.34073 17.4388 2.82373 17.4388C3.7419 17.4388 4.48856 16.7061 4.48856 15.8054C4.48856 14.9304 3.77223 14.2701 2.82373 14.2701C2.59156 14.2701 2.36873 14.1779 2.2054 14.0134C2.0409 13.8501 1.94873 13.6261 1.94873 13.3951L1.9499 10.2708C1.9499 7.69361 4.06856 5.59595 6.67256 5.59595H22.3082C24.9122 5.59595 27.0309 7.69361 27.0309 10.2708L27.0321 13.2971C27.0321 13.5281 26.9399 13.7521 26.7754 13.9154C26.6121 14.0799 26.3892 14.1721 26.1571 14.1721C25.2389 14.1721 24.4922 14.9048 24.4922 15.8054C24.4922 16.7061 25.2389 17.4388 26.1571 17.4388C26.6401 17.4388 27.0321 17.8308 27.0321 18.3138V21.3378C27.0321 23.9149 24.9134 26.0126 22.3094 26.0126Z" fill="#61646B"/>
</g>
</svg>
