<svg width="30" height="30" viewBox="0 0 30 30" fill="none" xmlns="http://www.w3.org/2000/svg">
<path fill-rule="evenodd" clip-rule="evenodd" d="M12.2009 19.5214C11.9609 19.5214 11.7209 19.4301 11.5384 19.2464C10.6159 18.3251 10.1072 17.1001 10.1072 15.7976C10.1072 13.0976 12.3022 10.9014 14.9997 10.9014C16.2972 10.9014 17.5572 11.4251 18.4559 12.3389C18.8184 12.7089 18.8147 13.3014 18.4447 13.6639C18.0759 14.0289 17.4834 14.0226 17.1197 13.6551C16.5709 13.0964 15.7984 12.7764 14.9997 12.7764C13.3359 12.7764 11.9822 14.1314 11.9822 15.7976C11.9822 16.5989 12.2959 17.3539 12.8634 17.9214C13.2297 18.2876 13.2297 18.8801 12.8647 19.2464C12.6809 19.4301 12.4409 19.5214 12.2009 19.5214Z" fill="#49286D"/>
<path fill-rule="evenodd" clip-rule="evenodd" d="M15.7092 20.6139C15.2655 20.6139 14.8705 20.2964 14.788 19.8439C14.6955 19.3351 15.033 18.8464 15.543 18.7539C16.768 18.5314 17.738 17.5589 17.958 16.3326C18.0505 15.8239 18.538 15.4889 19.0467 15.5764C19.5567 15.6676 19.8955 16.1551 19.8042 16.6651C19.4455 18.6564 17.868 20.2364 15.878 20.5989C15.8217 20.6089 15.7642 20.6139 15.7092 20.6139Z" fill="#49286D"/>
<mask id="mask0_75_8420" style="mask-type:luminance" maskUnits="userSpaceOnUse" x="2" y="5" width="21" height="19">
<path fill-rule="evenodd" clip-rule="evenodd" d="M2.5 5.78076H22.6078V23.4034H2.5V5.78076Z" fill="white"/>
</mask>
<g mask="url(#mask0_75_8420)">
<path fill-rule="evenodd" clip-rule="evenodd" d="M8.31788 23.4034C8.11538 23.4034 7.91163 23.3372 7.73913 23.2034C5.62538 21.5434 3.83913 19.1097 2.57663 16.1672C2.47413 15.9297 2.47413 15.6622 2.57663 15.4259C3.85288 12.4709 5.65038 10.0247 7.77538 8.35342C12.1079 4.92467 17.8754 4.91342 22.2516 8.37842C22.6579 8.69967 22.7266 9.28967 22.4054 9.69592C22.0829 10.0997 21.4954 10.1709 21.0879 9.84842C17.3804 6.91342 12.6041 6.92342 8.93663 9.82592C7.14163 11.2384 5.60038 13.2959 4.46288 15.7984C5.58913 18.2859 7.11663 20.3309 8.89788 21.7284C9.30538 22.0484 9.37538 22.6384 9.05538 23.0447C8.87038 23.2797 8.59538 23.4034 8.31788 23.4034Z" fill="#49286D"/>
</g>
<mask id="mask1_75_8420" style="mask-type:luminance" maskUnits="userSpaceOnUse" x="10" y="10" width="18" height="16">
<path fill-rule="evenodd" clip-rule="evenodd" d="M10.8967 10.9263H27.4999V25.8615H10.8967V10.9263Z" fill="white"/>
</mask>
<g mask="url(#mask1_75_8420)">
<path fill-rule="evenodd" clip-rule="evenodd" d="M15 25.8615C13.8288 25.8615 12.6638 25.6715 11.5388 25.2978C11.0475 25.134 10.7813 24.6028 10.945 24.1115C11.1088 23.619 11.6375 23.3578 12.1313 23.5178C13.065 23.829 14.03 23.9865 15 23.9865C19.285 23.9865 23.2013 20.934 25.5375 15.7953C24.9675 14.5465 24.3038 13.4153 23.5613 12.4278C23.25 12.014 23.3325 11.4253 23.7463 11.114C24.1588 10.8028 24.7475 10.8878 25.0588 11.3003C25.9638 12.5015 26.7588 13.8903 27.4225 15.4228C27.5263 15.6603 27.5263 15.9303 27.4225 16.1665C24.8025 22.2378 20.1588 25.8615 15 25.8615Z" fill="#49286D"/>
</g>
<mask id="mask2_75_8420" style="mask-type:luminance" maskUnits="userSpaceOnUse" x="4" y="5" width="22" height="22">
<path fill-rule="evenodd" clip-rule="evenodd" d="M4.20435 5.00049H25.7962V26.5917H4.20435V5.00049Z" fill="white"/>
</mask>
<g mask="url(#mask2_75_8420)">
<path fill-rule="evenodd" clip-rule="evenodd" d="M5.14153 26.5917C4.90153 26.5917 4.66153 26.5004 4.47903 26.3167C4.11278 25.9504 4.11278 25.3579 4.47903 24.9917L24.1965 5.2742C24.5628 4.90795 25.1553 4.90795 25.5215 5.2742C25.8878 5.64045 25.8878 6.2342 25.5215 6.60045L5.80403 26.3167C5.62153 26.5004 5.38153 26.5917 5.14153 26.5917Z" fill="#49286D"/>
</g>
</svg>
