<svg width="30" height="30" viewBox="0 0 30 30" fill="none" xmlns="http://www.w3.org/2000/svg">
<mask id="mask0_75_8423" style="mask-type:luminance" maskUnits="userSpaceOnUse" x="2" y="2" width="26" height="26">
<path fill-rule="evenodd" clip-rule="evenodd" d="M2.5 2.5H27.4999V27.5H2.5V2.5Z" fill="white"/>
</mask>
<g mask="url(#mask0_75_8423)">
<path fill-rule="evenodd" clip-rule="evenodd" d="M9.58 4.375C6.41875 4.375 4.375 6.54125 4.375 9.895V20.105C4.375 23.4587 6.41875 25.625 9.58 25.625H20.415C23.58 25.625 25.625 23.4587 25.625 20.105V9.895C25.625 6.54125 23.58 4.375 20.4175 4.375H9.58ZM20.415 27.5H9.58C5.345 27.5 2.5 24.5275 2.5 20.105V9.895C2.5 5.4725 5.345 2.5 9.58 2.5H20.4175C24.6537 2.5 27.5 5.4725 27.5 9.895V20.105C27.5 24.5275 24.6537 27.5 20.415 27.5Z" fill="#49286D"/>
</g>
<path fill-rule="evenodd" clip-rule="evenodd" d="M11.0485 13.623C10.286 13.623 9.66846 14.2405 9.66846 15.0005C9.66846 15.7605 10.286 16.378 11.046 16.378C11.8047 16.378 12.4235 15.7605 12.4235 15.0005C12.4235 14.2418 11.806 13.6243 11.0485 13.623ZM11.046 18.253C9.25221 18.253 7.79346 16.793 7.79346 15.0005C7.79346 13.2068 9.25221 11.748 11.046 11.748C12.8422 11.7493 14.2985 13.208 14.2985 15.0005C14.2985 16.793 12.8397 18.253 11.046 18.253Z" fill="#49286D"/>
<path fill-rule="evenodd" clip-rule="evenodd" d="M21.2622 18.2533C20.7447 18.2533 20.3247 17.8333 20.3247 17.3158V15.937H13.3647C12.8472 15.937 12.4272 15.5183 12.4272 14.9995C12.4272 14.482 12.8472 14.062 13.3647 14.062H21.2622C21.7797 14.062 22.1997 14.482 22.1997 14.9995V17.3158C22.1997 17.8333 21.7797 18.2533 21.2622 18.2533Z" fill="#49286D"/>
<path fill-rule="evenodd" clip-rule="evenodd" d="M17.7268 18.2533C17.2093 18.2533 16.7893 17.8333 16.7893 17.3158V14.9995C16.7893 14.482 17.2093 14.062 17.7268 14.062C18.2443 14.062 18.6643 14.482 18.6643 14.9995V17.3158C18.6643 17.8333 18.2443 18.2533 17.7268 18.2533Z" fill="#49286D"/>
</svg>
