<svg width="30" height="30" viewBox="0 0 30 30" fill="none" xmlns="http://www.w3.org/2000/svg">
<path fill-rule="evenodd" clip-rule="evenodd" d="M21.1537 12.7502C20.6362 12.7502 20.2162 12.3302 20.2162 11.8127V9.12895C20.2162 6.50895 18.0849 4.3777 15.4649 4.3777H15.4449C14.1787 4.3777 12.9924 4.8652 12.0962 5.75395C11.1937 6.64645 10.6949 7.8377 10.6899 9.1077V11.8127C10.6899 12.3302 10.2699 12.7502 9.75244 12.7502C9.23494 12.7502 8.81494 12.3302 8.81494 11.8127V9.12895C8.82244 7.32895 9.51869 5.6677 10.7749 4.4227C12.0324 3.17645 13.6924 2.4552 15.4687 2.5027C19.1187 2.5027 22.0912 5.4752 22.0912 9.12895V11.8127C22.0912 12.3302 21.6712 12.7502 21.1537 12.7502Z" fill="#49286D"/>
<path fill-rule="evenodd" clip-rule="evenodd" d="M10.6775 12.6611C8.58 12.6611 6.875 14.3661 6.875 16.4636V21.8249C6.875 23.9224 8.58 25.6274 10.6775 25.6274H20.2287C22.325 25.6274 24.0312 23.9224 24.0312 21.8249V16.4636C24.0312 14.3661 22.325 12.6611 20.2287 12.6611H10.6775ZM20.2287 27.5024H10.6775C7.54625 27.5024 5 24.9561 5 21.8249V16.4636C5 13.3324 7.54625 10.7861 10.6775 10.7861H20.2287C23.36 10.7861 25.9062 13.3324 25.9062 16.4636V21.8249C25.9062 24.9561 23.36 27.5024 20.2287 27.5024Z" fill="#49286D"/>
<path fill-rule="evenodd" clip-rule="evenodd" d="M15.4529 21.4696C14.9354 21.4696 14.5154 21.0496 14.5154 20.5321V17.7559C14.5154 17.2384 14.9354 16.8184 15.4529 16.8184C15.9704 16.8184 16.3904 17.2384 16.3904 17.7559V20.5321C16.3904 21.0496 15.9704 21.4696 15.4529 21.4696Z" fill="#49286D"/>
</svg>
