<svg width="30" height="30" viewBox="0 0 30 30" fill="none" xmlns="http://www.w3.org/2000/svg">
<mask id="mask0_75_8422" style="mask-type:luminance" maskUnits="userSpaceOnUse" x="1" y="1" width="28" height="28">
<path fill-rule="evenodd" clip-rule="evenodd" d="M1.25 1.25049H28.1162V28.1177H1.25V1.25049Z" fill="white"/>
</mask>
<g mask="url(#mask0_75_8422)">
<path fill-rule="evenodd" clip-rule="evenodd" d="M7.63555 24.5942C8.36055 24.5942 9.0443 24.8692 9.76805 25.1605C14.2018 27.2105 19.4455 26.278 22.8618 22.863C27.3693 18.353 27.3693 11.0167 22.8618 6.50924C20.6793 4.32674 17.7768 3.12549 14.6868 3.12549C11.5955 3.12549 8.6918 4.32799 6.51055 6.51049C3.09305 9.92549 2.16305 15.1692 4.1943 19.5605C4.4868 20.2842 4.7693 20.9892 4.7693 21.7217C4.7693 22.453 4.51805 23.1892 4.2968 23.8392C4.1143 24.3742 3.83805 25.1817 4.01555 25.3592C4.1893 25.5392 5.0018 25.2555 5.53805 25.0717C6.1818 24.8517 6.9118 24.5992 7.63555 24.5942ZM14.6555 28.118C12.7455 28.118 10.823 27.7142 9.0243 26.8817C8.4943 26.6692 7.99805 26.4692 7.6418 26.4692C7.2318 26.4717 6.68055 26.6617 6.14805 26.8455C5.05555 27.2205 3.69555 27.688 2.6893 26.6855C1.6868 25.6817 2.1493 24.3255 2.5218 23.2342C2.70555 22.6967 2.8943 22.1417 2.8943 21.7217C2.8943 21.3767 2.72805 20.9367 2.47305 20.303C0.131796 15.2467 1.2143 9.15299 5.18555 5.18424C7.72055 2.64799 11.0943 1.25049 14.6855 1.25049C18.2768 1.25049 21.6518 2.64674 24.1868 5.18299C29.4268 10.423 29.4268 18.948 24.1868 24.188C21.618 26.758 18.1593 28.118 14.6555 28.118Z" fill="#49286D"/>
</g>
<path fill-rule="evenodd" clip-rule="evenodd" d="M19.6205 16.4541C18.9305 16.4541 18.3655 15.8954 18.3655 15.2041C18.3655 14.5129 18.9192 13.9541 19.6092 13.9541H19.6205C20.3105 13.9541 20.8705 14.5129 20.8705 15.2041C20.8705 15.8954 20.3105 16.4541 19.6205 16.4541Z" fill="#49286D"/>
<path fill-rule="evenodd" clip-rule="evenodd" d="M14.6095 16.4541C13.9195 16.4541 13.3545 15.8954 13.3545 15.2041C13.3545 14.5129 13.907 13.9541 14.5982 13.9541H14.6095C15.2995 13.9541 15.8595 14.5129 15.8595 15.2041C15.8595 15.8954 15.2995 16.4541 14.6095 16.4541Z" fill="#49286D"/>
<path fill-rule="evenodd" clip-rule="evenodd" d="M9.59777 16.4541C8.90777 16.4541 8.34277 15.8954 8.34277 15.2041C8.34277 14.5129 8.89652 13.9541 9.58652 13.9541H9.59777C10.2878 13.9541 10.8478 14.5129 10.8478 15.2041C10.8478 15.8954 10.2878 16.4541 9.59777 16.4541Z" fill="#49286D"/>
</svg>
