<svg width="30" height="30" viewBox="0 0 30 30" fill="none" xmlns="http://www.w3.org/2000/svg">
<mask id="mask0_75_8411" style="mask-type:luminance" maskUnits="userSpaceOnUse" x="5" y="18" width="20" height="10">
<path fill-rule="evenodd" clip-rule="evenodd" d="M5 18.1201H24.7999V27.3376H5V18.1201Z" fill="white"/>
</mask>
<g mask="url(#mask0_75_8411)">
<path fill-rule="evenodd" clip-rule="evenodd" d="M14.901 19.9951C9.57476 19.9951 6.87476 20.9101 6.87476 22.7164C6.87476 24.5389 9.57476 25.4626 14.901 25.4626C20.226 25.4626 22.9248 24.5476 22.9248 22.7414C22.9248 20.9189 20.226 19.9951 14.901 19.9951ZM14.901 27.3376C12.4523 27.3376 4.99976 27.3376 4.99976 22.7164C4.99976 18.5964 10.651 18.1201 14.901 18.1201C17.3498 18.1201 24.7998 18.1201 24.7998 22.7414C24.7998 26.8614 19.1498 27.3376 14.901 27.3376Z" fill="#49286D"/>
</g>
<mask id="mask1_75_8411" style="mask-type:luminance" maskUnits="userSpaceOnUse" x="8" y="2" width="14" height="14">
<path fill-rule="evenodd" clip-rule="evenodd" d="M8.26245 2.5H21.5375V15.7732H8.26245V2.5Z" fill="white"/>
</mask>
<g mask="url(#mask1_75_8411)">
<path fill-rule="evenodd" clip-rule="evenodd" d="M14.9012 4.28451C12.225 4.28451 10.0475 6.46076 10.0475 9.13701C10.0387 11.8045 12.2 13.9795 14.865 13.9895L14.9012 14.882V13.9895C17.5762 13.9895 19.7525 11.812 19.7525 9.13701C19.7525 6.46076 17.5762 4.28451 14.9012 4.28451ZM14.9012 15.7733H14.8612C11.2087 15.762 8.24999 12.7833 8.26249 9.13326C8.26249 5.47701 11.24 2.49951 14.9012 2.49951C18.5612 2.49951 21.5375 5.47701 21.5375 9.13701C21.5375 12.797 18.5612 15.7733 14.9012 15.7733Z" fill="#49286D"/>
</g>
</svg>
