<svg width="30" height="30" viewBox="0 0 30 30" fill="none" xmlns="http://www.w3.org/2000/svg">
<path fill-rule="evenodd" clip-rule="evenodd" d="M12.6001 23.2412H4.72388C4.20638 23.2412 3.78638 22.8212 3.78638 22.3037C3.78638 21.7862 4.20638 21.3662 4.72388 21.3662H12.6001C13.1176 21.3662 13.5376 21.7862 13.5376 22.3037C13.5376 22.8212 13.1176 23.2412 12.6001 23.2412Z" fill="#49286D"/>
<path fill-rule="evenodd" clip-rule="evenodd" d="M23.9885 11.1255H16.1135C15.596 11.1255 15.176 10.7055 15.176 10.188C15.176 9.67049 15.596 9.25049 16.1135 9.25049H23.9885C24.506 9.25049 24.926 9.67049 24.926 10.188C24.926 10.7055 24.506 11.1255 23.9885 11.1255Z" fill="#49286D"/>
<mask id="mask0_75_8421" style="mask-type:luminance" maskUnits="userSpaceOnUse" x="3" y="6" width="9" height="8">
<path fill-rule="evenodd" clip-rule="evenodd" d="M3.75 6.25049H11.5322V13.99H3.75V6.25049Z" fill="white"/>
</mask>
<g mask="url(#mask0_75_8421)">
<path fill-rule="evenodd" clip-rule="evenodd" d="M7.64101 8.125C6.52976 8.125 5.62476 9.02 5.62476 10.1212C5.62476 11.2213 6.52976 12.115 7.64101 12.115C8.75351 12.115 9.65726 11.2213 9.65726 10.1212C9.65726 9.02 8.75351 8.125 7.64101 8.125ZM7.64101 13.99C5.49601 13.99 3.74976 12.255 3.74976 10.1212C3.74976 7.9875 5.49601 6.25 7.64101 6.25C9.78726 6.25 11.5323 7.9875 11.5323 10.1212C11.5323 12.255 9.78726 13.99 7.64101 13.99Z" fill="#49286D"/>
</g>
<path fill-rule="evenodd" clip-rule="evenodd" d="M21.7345 20.2598C20.622 20.2598 19.717 21.1548 19.717 22.2548C19.717 23.356 20.622 24.2498 21.7345 24.2498C22.8458 24.2498 23.7495 23.356 23.7495 22.2548C23.7495 21.1548 22.8458 20.2598 21.7345 20.2598ZM21.7345 26.1248C19.5883 26.1248 17.842 24.3885 17.842 22.2548C17.842 20.121 19.5883 18.3848 21.7345 18.3848C23.8795 18.3848 25.6245 20.121 25.6245 22.2548C25.6245 24.3885 23.8795 26.1248 21.7345 26.1248Z" fill="#49286D"/>
</svg>
