<svg width="31" height="31" viewBox="0 0 31 31" fill="none" xmlns="http://www.w3.org/2000/svg">
<path d="M27.6069 21.5451C26.9384 23.0297 26.6163 23.6933 25.7566 25.0036C24.5529 26.8345 22.8552 29.1207 20.7578 29.1353C18.8906 29.1522 18.4086 27.9171 15.8729 27.9389C13.3396 27.951 12.8117 29.1595 10.942 29.1401C8.8422 29.1207 7.2365 27.0622 6.03282 25.2336C2.66642 20.1065 2.3104 14.0954 4.39079 10.8986C5.86329 8.63168 8.19072 7.29965 10.3777 7.29965C12.6058 7.29965 14.0056 8.5227 15.8463 8.5227C17.6336 8.5227 18.721 7.29723 21.2979 7.29723C23.2451 7.29723 25.3037 8.35801 26.7762 10.1889C21.9615 12.8288 22.7438 19.7045 27.6069 21.5451ZM19.341 5.25074C20.2783 4.04707 20.9903 2.34934 20.7312 0.620117C19.203 0.724258 17.4156 1.70027 16.3718 2.96449C15.4249 4.11731 14.6402 5.82715 14.9453 7.48129C16.614 7.53457 18.3408 6.53918 19.341 5.25074Z" fill="#61646B"/>
</svg>
