<svg width="31" height="30" viewBox="0 0 31 30" fill="none" xmlns="http://www.w3.org/2000/svg">
<path d="M28.1656 12.5519H27.1252V12.5H15.5002V17.5H22.8C21.735 20.4106 18.8733 22.5 15.5002 22.5C11.2202 22.5 7.75016 19.1419 7.75016 15C7.75016 10.8581 11.2202 7.5 15.5002 7.5C17.4758 7.5 19.2731 8.22125 20.6416 9.39937L24.2951 5.86375C21.9882 3.78312 18.9024 2.5 15.5002 2.5C8.36693 2.5 2.5835 8.09687 2.5835 15C2.5835 21.9031 8.36693 27.5 15.5002 27.5C22.6334 27.5 28.4168 21.9031 28.4168 15C28.4168 14.1619 28.3277 13.3437 28.1656 12.5519Z" fill="#FFC107"/>
<path d="M4.07275 9.18187L8.31652 12.1937C9.46482 9.4425 12.2458 7.5 15.5001 7.5C17.4757 7.5 19.2731 8.22125 20.6416 9.39937L24.2951 5.86375C21.9882 3.78312 18.9024 2.5 15.5001 2.5C10.5388 2.5 6.2363 5.21062 4.07275 9.18187Z" fill="#FF3D00"/>
<path d="M15.5 27.4999C18.8364 27.4999 21.868 26.2643 24.16 24.2549L20.1623 20.9812C18.8655 21.9318 17.2535 22.4999 15.5 22.4999C12.1404 22.4999 9.28777 20.4268 8.2131 17.5337L4.00098 20.6743C6.13868 24.7224 10.48 27.4999 15.5 27.4999Z" fill="#4CAF50"/>
<path d="M28.1654 12.5519H27.125V12.5H15.5V17.5H22.7999C22.2884 18.8981 21.359 20.1037 20.1603 20.9819L20.1623 20.9806L24.16 24.2544C23.8771 24.5031 28.4167 21.25 28.4167 15C28.4167 14.1619 28.3275 13.3438 28.1654 12.5519Z" fill="#1976D2"/>
</svg>
