<svg width="31" height="31" viewBox="0 0 31 31" fill="none" xmlns="http://www.w3.org/2000/svg">
<g clip-path="url(#clip0_97_1861)">
<path d="M15.5002 30.9686C24.0431 30.9686 30.9686 24.0431 30.9686 15.5002C30.9686 6.95719 24.0431 0.0317383 15.5002 0.0317383C6.95719 0.0317383 0.0317383 6.95719 0.0317383 15.5002C0.0317383 24.0431 6.95719 30.9686 15.5002 30.9686Z" fill="#FC3F1D"/>
<path d="M21.0974 25.2104H17.7018V8.41588H16.1891C13.4163 8.41588 11.9639 9.80227 11.9639 11.8718C11.9639 14.2198 12.9657 15.3076 15.0381 16.694L16.746 17.845L11.8376 25.2075H8.18652L12.604 18.6344C10.0637 16.8203 8.6343 15.0493 8.6343 12.0613C8.6343 8.3269 11.2377 5.78662 16.1662 5.78662H21.0745V25.2047H21.0974V25.2104Z" fill="white"/>
</g>
<defs>
<clipPath id="clip0_97_1861">
<rect width="31" height="31" fill="white"/>
</clipPath>
</defs>
</svg>
