<svg width="30" height="30" viewBox="0 0 30 30" fill="none" xmlns="http://www.w3.org/2000/svg">
<mask id="mask0_75_8342" style="mask-type:luminance" maskUnits="userSpaceOnUse" x="1" y="1" width="28" height="28">
<path fill-rule="evenodd" clip-rule="evenodd" d="M1.25 1.25037H28.1162V28.1176H1.25V1.25037Z" fill="white"/>
</mask>
<g mask="url(#mask0_75_8342)">
<path fill-rule="evenodd" clip-rule="evenodd" d="M7.63555 24.5941C8.36055 24.5941 9.0443 24.8691 9.76805 25.1604C14.2018 27.2104 19.4455 26.2779 22.8618 22.8629C27.3693 18.3529 27.3693 11.0166 22.8618 6.50912C20.6793 4.32662 17.7768 3.12537 14.6868 3.12537C11.5955 3.12537 8.6918 4.32787 6.51055 6.51037C3.09305 9.92537 2.16305 15.1691 4.1943 19.5604C4.4868 20.2841 4.7693 20.9891 4.7693 21.7216C4.7693 22.4529 4.51805 23.1891 4.2968 23.8391C4.1143 24.3741 3.83805 25.1816 4.01555 25.3591C4.1893 25.5391 5.0018 25.2554 5.53805 25.0716C6.1818 24.8516 6.9118 24.5991 7.63555 24.5941ZM14.6555 28.1179C12.7455 28.1179 10.823 27.7141 9.0243 26.8816C8.4943 26.6691 7.99805 26.4691 7.6418 26.4691C7.2318 26.4716 6.68055 26.6616 6.14805 26.8454C5.05555 27.2204 3.69555 27.6879 2.6893 26.6854C1.6868 25.6816 2.1493 24.3254 2.5218 23.2341C2.70555 22.6966 2.8943 22.1416 2.8943 21.7216C2.8943 21.3766 2.72805 20.9366 2.47305 20.3029C0.131796 15.2466 1.2143 9.15287 5.18555 5.18412C7.72055 2.64787 11.0943 1.25037 14.6855 1.25037C18.2768 1.25037 21.6518 2.64662 24.1868 5.18287C29.4268 10.4229 29.4268 18.9479 24.1868 24.1879C21.618 26.7579 18.1593 28.1179 14.6555 28.1179Z" fill="#49286D"/>
</g>
<path fill-rule="evenodd" clip-rule="evenodd" d="M19.6202 16.4537C18.9302 16.4537 18.3652 15.895 18.3652 15.2037C18.3652 14.5125 18.919 13.9537 19.609 13.9537H19.6202C20.3102 13.9537 20.8702 14.5125 20.8702 15.2037C20.8702 15.895 20.3102 16.4537 19.6202 16.4537Z" fill="#49286D"/>
<path fill-rule="evenodd" clip-rule="evenodd" d="M14.6095 16.4537C13.9195 16.4537 13.3545 15.895 13.3545 15.2037C13.3545 14.5125 13.907 13.9537 14.5982 13.9537H14.6095C15.2995 13.9537 15.8595 14.5125 15.8595 15.2037C15.8595 15.895 15.2995 16.4537 14.6095 16.4537Z" fill="#49286D"/>
<path fill-rule="evenodd" clip-rule="evenodd" d="M9.59777 16.4537C8.90777 16.4537 8.34277 15.895 8.34277 15.2037C8.34277 14.5125 8.89652 13.9537 9.58652 13.9537H9.59777C10.2878 13.9537 10.8478 14.5125 10.8478 15.2037C10.8478 15.895 10.2878 16.4537 9.59777 16.4537Z" fill="#49286D"/>
</svg>
