<svg width="80" height="80" viewBox="0 0 80 80" fill="none" xmlns="http://www.w3.org/2000/svg">
<circle cx="40" cy="40" r="40" fill="#49286D"/>
<path fill-rule="evenodd" clip-rule="evenodd" d="M49.6079 62.3976H30.1215C22.5227 62.3976 17.417 57.0645 17.417 49.1278V30.7677C17.417 22.8309 22.5227 17.4978 30.1215 17.4978H38.3785C39.2927 17.4978 40.0347 18.2398 40.0347 19.1541C40.0347 20.0683 39.2927 20.8103 38.3785 20.8103H30.1215C24.4152 20.8103 20.7295 24.7191 20.7295 30.7677V49.1278C20.7295 55.1764 24.4152 59.0851 30.1215 59.0851H49.6079C55.3142 59.0851 59.0021 55.1764 59.0021 49.1278V40.2326C59.0021 39.3183 59.7441 38.5763 60.6584 38.5763C61.5726 38.5763 62.3146 39.3183 62.3146 40.2326V49.1278C62.3146 57.0645 57.2067 62.3976 49.6079 62.3976Z" fill="white"/>
<path fill-rule="evenodd" clip-rule="evenodd" d="M32.583 47.0709H39.1572C39.9964 47.0709 40.7825 46.7462 41.3766 46.1522L57.9589 29.5698C58.6391 28.8897 59.0145 27.9842 59.0145 27.0214C59.0145 26.0564 58.6391 25.1487 57.9589 24.4686L55.2714 21.781C53.8647 20.3787 51.5769 20.3787 50.1679 21.781L33.6651 38.2839C33.0931 38.8559 32.7685 39.6155 32.7486 40.4216L32.583 47.0709ZM39.1572 50.3834H30.8848C30.4387 50.3834 30.0103 50.2023 29.6989 49.8821C29.3875 49.5641 29.2175 49.1334 29.2285 48.6852L29.4361 40.3399C29.4781 38.6792 30.1472 37.1179 31.322 35.9409H31.3242L47.8271 19.438C50.5257 16.7438 54.9137 16.7438 57.6122 19.438L60.2998 22.1255C61.6093 23.4329 62.3292 25.1708 62.327 27.0214C62.327 28.872 61.6071 30.6077 60.2998 31.9129L43.7174 48.4952C42.5006 49.712 40.8797 50.3834 39.1572 50.3834Z" fill="white"/>
<path fill-rule="evenodd" clip-rule="evenodd" d="M56.5729 34.8992C56.1489 34.8992 55.7249 34.738 55.4025 34.4134L45.3193 24.3302C44.6722 23.6831 44.6722 22.6342 45.3193 21.9871C45.9663 21.3401 47.0131 21.3401 47.6601 21.9871L57.7434 32.0726C58.3904 32.7196 58.3904 33.7664 57.7434 34.4134C57.4209 34.738 56.9969 34.8992 56.5729 34.8992Z" fill="white"/>
</svg>
