<svg width="40" height="40" viewBox="0 0 40 40" fill="none" xmlns="http://www.w3.org/2000/svg">
<path fill-rule="evenodd" clip-rule="evenodd" d="M18.6858 18.6865L16.9408 24.2649L22.5175 22.5182L24.2641 16.9398L18.6858 18.6865ZM15.0341 27.4198C14.7075 27.4198 14.3875 27.2915 14.1491 27.0548C13.8208 26.7248 13.7008 26.2399 13.8408 25.7982L16.4958 17.3165C16.6175 16.9232 16.9241 16.6182 17.3141 16.4965L25.7958 13.8415C26.2408 13.6998 26.7241 13.8215 27.0541 14.1498C27.3825 14.4798 27.5025 14.9648 27.3625 15.4065L24.7091 23.8882C24.5875 24.2799 24.2791 24.5865 23.8891 24.7082L15.4075 27.3632C15.2841 27.4015 15.1575 27.4198 15.0341 27.4198Z" fill="#49286D"/>
<mask id="mask0_75_8056" style="mask-type:luminance" maskUnits="userSpaceOnUse" x="3" y="3" width="35" height="35">
<path fill-rule="evenodd" clip-rule="evenodd" d="M3.3335 3.33337H37.8698V37.8695H3.3335V3.33337Z" fill="white"/>
</mask>
<g mask="url(#mask0_75_8056)">
<path fill-rule="evenodd" clip-rule="evenodd" d="M20.6013 5.83337C12.458 5.83337 5.83301 12.46 5.83301 20.6017C5.83301 28.745 12.458 35.37 20.6013 35.37C28.7447 35.37 35.3697 28.745 35.3697 20.6017C35.3697 12.46 28.7447 5.83337 20.6013 5.83337ZM20.6013 37.87C11.0797 37.87 3.33301 30.1234 3.33301 20.6017C3.33301 11.08 11.0797 3.33337 20.6013 3.33337C30.123 3.33337 37.8697 11.08 37.8697 20.6017C37.8697 30.1234 30.123 37.87 20.6013 37.87Z" fill="#49286D"/>
</g>
</svg>
