<svg width="30" height="30" viewBox="0 0 30 30" fill="none" xmlns="http://www.w3.org/2000/svg">
<path fill-rule="evenodd" clip-rule="evenodd" d="M12.5999 23.241H4.72363C4.20613 23.241 3.78613 22.821 3.78613 22.3035C3.78613 21.786 4.20613 21.366 4.72363 21.366H12.5999C13.1174 21.366 13.5374 21.786 13.5374 22.3035C13.5374 22.821 13.1174 23.241 12.5999 23.241Z" fill="#49286D"/>
<path fill-rule="evenodd" clip-rule="evenodd" d="M23.9888 11.1255H16.1138C15.5963 11.1255 15.1763 10.7055 15.1763 10.188C15.1763 9.67049 15.5963 9.25049 16.1138 9.25049H23.9888C24.5063 9.25049 24.9263 9.67049 24.9263 10.188C24.9263 10.7055 24.5063 11.1255 23.9888 11.1255Z" fill="#49286D"/>
<mask id="mask0_75_8341" style="mask-type:luminance" maskUnits="userSpaceOnUse" x="3" y="6" width="9" height="8">
<path fill-rule="evenodd" clip-rule="evenodd" d="M3.75 6.25049H11.5322V13.99H3.75V6.25049Z" fill="white"/>
</mask>
<g mask="url(#mask0_75_8341)">
<path fill-rule="evenodd" clip-rule="evenodd" d="M7.64076 8.125C6.52951 8.125 5.62451 9.02 5.62451 10.1212C5.62451 11.2213 6.52951 12.115 7.64076 12.115C8.75326 12.115 9.65701 11.2213 9.65701 10.1212C9.65701 9.02 8.75326 8.125 7.64076 8.125ZM7.64076 13.99C5.49576 13.99 3.74951 12.255 3.74951 10.1212C3.74951 7.9875 5.49576 6.25 7.64076 6.25C9.78701 6.25 11.532 7.9875 11.532 10.1212C11.532 12.255 9.78701 13.99 7.64076 13.99Z" fill="#49286D"/>
</g>
<path fill-rule="evenodd" clip-rule="evenodd" d="M21.7348 20.26C20.6223 20.26 19.7173 21.155 19.7173 22.255C19.7173 23.3563 20.6223 24.25 21.7348 24.25C22.846 24.25 23.7498 23.3563 23.7498 22.255C23.7498 21.155 22.846 20.26 21.7348 20.26ZM21.7348 26.125C19.5885 26.125 17.8423 24.3888 17.8423 22.255C17.8423 20.1213 19.5885 18.385 21.7348 18.385C23.8798 18.385 25.6248 20.1213 25.6248 22.255C25.6248 24.3888 23.8798 26.125 21.7348 26.125Z" fill="#49286D"/>
</svg>
