<svg width="30" height="30" viewBox="0 0 30 30" fill="none" xmlns="http://www.w3.org/2000/svg">
<path fill-rule="evenodd" clip-rule="evenodd" d="M12.2012 19.5215C11.9612 19.5215 11.7212 19.4302 11.5387 19.2465C10.6162 18.3252 10.1074 17.1002 10.1074 15.7977C10.1074 13.0977 12.3024 10.9015 14.9999 10.9015C16.2974 10.9015 17.5574 11.4252 18.4562 12.339C18.8187 12.709 18.8149 13.3015 18.4449 13.664C18.0762 14.029 17.4837 14.0227 17.1199 13.6552C16.5712 13.0965 15.7987 12.7765 14.9999 12.7765C13.3362 12.7765 11.9824 14.1315 11.9824 15.7977C11.9824 16.599 12.2962 17.354 12.8637 17.9215C13.2299 18.2877 13.2299 18.8802 12.8649 19.2465C12.6812 19.4302 12.4412 19.5215 12.2012 19.5215Z" fill="#49286D"/>
<path fill-rule="evenodd" clip-rule="evenodd" d="M15.7095 20.614C15.2657 20.614 14.8707 20.2965 14.7882 19.844C14.6957 19.3353 15.0332 18.8465 15.5432 18.754C16.7682 18.5315 17.7382 17.559 17.9582 16.3328C18.0507 15.824 18.5382 15.489 19.047 15.5765C19.557 15.6678 19.8957 16.1553 19.8045 16.6653C19.4457 18.6565 17.8682 20.2365 15.8782 20.599C15.822 20.609 15.7645 20.614 15.7095 20.614Z" fill="#49286D"/>
<mask id="mask0_75_8340" style="mask-type:luminance" maskUnits="userSpaceOnUse" x="2" y="5" width="21" height="19">
<path fill-rule="evenodd" clip-rule="evenodd" d="M2.5 5.78064H22.6078V23.4033H2.5V5.78064Z" fill="white"/>
</mask>
<g mask="url(#mask0_75_8340)">
<path fill-rule="evenodd" clip-rule="evenodd" d="M8.31812 23.4033C8.11562 23.4033 7.91188 23.337 7.73938 23.2033C5.62563 21.5433 3.83938 19.1095 2.57688 16.167C2.47437 15.9295 2.47437 15.662 2.57688 15.4258C3.85313 12.4708 5.65062 10.0245 7.77563 8.3533C12.1081 4.92455 17.8756 4.9133 22.2519 8.3783C22.6581 8.69955 22.7269 9.28955 22.4056 9.6958C22.0831 10.0995 21.4956 10.1708 21.0881 9.8483C17.3806 6.9133 12.6044 6.9233 8.93687 9.8258C7.14187 11.2383 5.60063 13.2958 4.46312 15.7983C5.58938 18.2858 7.11688 20.3308 8.89813 21.7283C9.30563 22.0483 9.37563 22.6383 9.05562 23.0445C8.87063 23.2795 8.59562 23.4033 8.31812 23.4033Z" fill="#49286D"/>
</g>
<mask id="mask1_75_8340" style="mask-type:luminance" maskUnits="userSpaceOnUse" x="10" y="10" width="18" height="16">
<path fill-rule="evenodd" clip-rule="evenodd" d="M10.897 10.9265H27.5001V25.8618H10.897V10.9265Z" fill="white"/>
</mask>
<g mask="url(#mask1_75_8340)">
<path fill-rule="evenodd" clip-rule="evenodd" d="M15.0003 25.8618C13.829 25.8618 12.664 25.6718 11.539 25.298C11.0478 25.1343 10.7815 24.603 10.9453 24.1118C11.109 23.6193 11.6378 23.358 12.1315 23.518C13.0653 23.8293 14.0303 23.9868 15.0003 23.9868C19.2853 23.9868 23.2015 20.9343 25.5378 15.7955C24.9678 14.5468 24.304 13.4155 23.5615 12.428C23.2503 12.0143 23.3328 11.4255 23.7465 11.1143C24.159 10.803 24.7478 10.888 25.059 11.3005C25.964 12.5018 26.759 13.8905 27.4228 15.423C27.5265 15.6605 27.5265 15.9305 27.4228 16.1668C24.8028 22.238 20.159 25.8618 15.0003 25.8618Z" fill="#49286D"/>
</g>
<mask id="mask2_75_8340" style="mask-type:luminance" maskUnits="userSpaceOnUse" x="4" y="5" width="22" height="22">
<path fill-rule="evenodd" clip-rule="evenodd" d="M4.20459 5.00049H25.7965V26.5917H4.20459V5.00049Z" fill="white"/>
</mask>
<g mask="url(#mask2_75_8340)">
<path fill-rule="evenodd" clip-rule="evenodd" d="M5.14178 26.5917C4.90178 26.5917 4.66178 26.5004 4.47928 26.3167C4.11303 25.9504 4.11303 25.3579 4.47928 24.9917L24.1968 5.2742C24.563 4.90795 25.1555 4.90795 25.5218 5.2742C25.888 5.64045 25.888 6.2342 25.5218 6.60045L5.80428 26.3167C5.62178 26.5004 5.38178 26.5917 5.14178 26.5917Z" fill="#49286D"/>
</g>
</svg>
