<svg width="16" height="16" viewBox="0 0 16 16" fill="none" xmlns="http://www.w3.org/2000/svg">
<path fill-rule="evenodd" clip-rule="evenodd" d="M8.16691 5.66663C7.52358 5.66663 7.00024 6.18996 7.00024 6.83396C7.00024 7.47729 7.52358 7.99996 8.16691 7.99996C8.81024 7.99996 9.33358 7.47729 9.33358 6.83396C9.33358 6.18996 8.81024 5.66663 8.16691 5.66663ZM8.16691 8.99996C6.97224 8.99996 6.00024 8.02863 6.00024 6.83396C6.00024 5.63863 6.97224 4.66663 8.16691 4.66663C9.36158 4.66663 10.3336 5.63863 10.3336 6.83396C10.3336 8.02863 9.36158 8.99996 8.16691 8.99996Z" fill="#61646B"/>
<mask id="mask0_152_3526" style="mask-type:luminance" maskUnits="userSpaceOnUse" x="2" y="1" width="12" height="14">
<path fill-rule="evenodd" clip-rule="evenodd" d="M2.66663 1.33331H13.6663V14.3333H2.66663V1.33331Z" fill="white"/>
</mask>
<g mask="url(#mask0_152_3526)">
<path fill-rule="evenodd" clip-rule="evenodd" d="M8.16626 2.33331C5.68493 2.33331 3.66626 4.37131 3.66626 6.87531C3.66626 10.0613 7.41559 13.1653 8.16626 13.3306C8.91693 13.1646 12.6663 10.0606 12.6663 6.87531C12.6663 4.37131 10.6476 2.33331 8.16626 2.33331ZM8.16626 14.3333C6.97026 14.3333 2.66626 10.632 2.66626 6.87531C2.66626 3.81931 5.13359 1.33331 8.16626 1.33331C11.1989 1.33331 13.6663 3.81931 13.6663 6.87531C13.6663 10.632 9.36226 14.3333 8.16626 14.3333Z" fill="#61646B"/>
</g>
</svg>
