<svg width="30" height="30" viewBox="0 0 30 30" fill="none" xmlns="http://www.w3.org/2000/svg">
<path fill-rule="evenodd" clip-rule="evenodd" d="M21.1537 12.75C20.6362 12.75 20.2162 12.33 20.2162 11.8125V9.1287C20.2162 6.5087 18.0849 4.37745 15.4649 4.37745H15.4449C14.1787 4.37745 12.9924 4.86495 12.0962 5.7537C11.1937 6.6462 10.6949 7.83745 10.6899 9.10745V11.8125C10.6899 12.33 10.2699 12.75 9.75244 12.75C9.23494 12.75 8.81494 12.33 8.81494 11.8125V9.1287C8.82244 7.3287 9.51869 5.66745 10.7749 4.42245C12.0324 3.1762 13.6924 2.45495 15.4687 2.50245C19.1187 2.50245 22.0912 5.47495 22.0912 9.1287V11.8125C22.0912 12.33 21.6712 12.75 21.1537 12.75Z" fill="#49286D"/>
<path fill-rule="evenodd" clip-rule="evenodd" d="M10.6775 12.661C8.58 12.661 6.875 14.366 6.875 16.4635V21.8248C6.875 23.9223 8.58 25.6273 10.6775 25.6273H20.2287C22.325 25.6273 24.0312 23.9223 24.0312 21.8248V16.4635C24.0312 14.366 22.325 12.661 20.2287 12.661H10.6775ZM20.2287 27.5023H10.6775C7.54625 27.5023 5 24.956 5 21.8248V16.4635C5 13.3323 7.54625 10.786 10.6775 10.786H20.2287C23.36 10.786 25.9062 13.3323 25.9062 16.4635V21.8248C25.9062 24.956 23.36 27.5023 20.2287 27.5023Z" fill="#49286D"/>
<path fill-rule="evenodd" clip-rule="evenodd" d="M15.4526 21.4695C14.9351 21.4695 14.5151 21.0495 14.5151 20.532V17.7557C14.5151 17.2382 14.9351 16.8182 15.4526 16.8182C15.9701 16.8182 16.3901 17.2382 16.3901 17.7557V20.532C16.3901 21.0495 15.9701 21.4695 15.4526 21.4695Z" fill="#49286D"/>
</svg>
