<svg width="30" height="30" viewBox="0 0 30 30" fill="none" xmlns="http://www.w3.org/2000/svg">
<mask id="mask0_75_8338" style="mask-type:luminance" maskUnits="userSpaceOnUse" x="5" y="18" width="20" height="10">
<path fill-rule="evenodd" clip-rule="evenodd" d="M5 18.1201H24.7999V27.3376H5V18.1201Z" fill="white"/>
</mask>
<g mask="url(#mask0_75_8338)">
<path fill-rule="evenodd" clip-rule="evenodd" d="M14.9012 19.9951C9.575 19.9951 6.875 20.9101 6.875 22.7164C6.875 24.5389 9.575 25.4626 14.9012 25.4626C20.2262 25.4626 22.925 24.5476 22.925 22.7414C22.925 20.9189 20.2262 19.9951 14.9012 19.9951M14.9012 27.3376C12.4525 27.3376 5 27.3376 5 22.7164C5 18.5964 10.6512 18.1201 14.9012 18.1201C17.35 18.1201 24.8 18.1201 24.8 22.7414C24.8 26.8614 19.15 27.3376 14.9012 27.3376" fill="#49286D"/>
</g>
<mask id="mask1_75_8338" style="mask-type:luminance" maskUnits="userSpaceOnUse" x="8" y="2" width="14" height="14">
<path fill-rule="evenodd" clip-rule="evenodd" d="M8.26221 2.50012H21.5372V15.7734H8.26221V2.50012Z" fill="white"/>
</mask>
<g mask="url(#mask1_75_8338)">
<path fill-rule="evenodd" clip-rule="evenodd" d="M14.901 4.28463C12.2247 4.28463 10.0472 6.46088 10.0472 9.13713C10.0385 11.8046 12.1997 13.9796 14.8647 13.9896L14.901 14.8821V13.9896C17.576 13.9896 19.7522 11.8121 19.7522 9.13713C19.7522 6.46088 17.576 4.28463 14.901 4.28463M14.901 15.7734H14.861C11.2085 15.7621 8.24975 12.7834 8.26225 9.13338C8.26225 5.47713 11.2397 2.49963 14.901 2.49963C18.561 2.49963 21.5372 5.47713 21.5372 9.13713C21.5372 12.7971 18.561 15.7734 14.901 15.7734" fill="#49286D"/>
</g>
</svg>
