<svg width="30" height="30" viewBox="0 0 30 30" fill="none" xmlns="http://www.w3.org/2000/svg">
<mask id="mask0_75_8059" style="mask-type:luminance" maskUnits="userSpaceOnUse" x="2" y="2" width="25" height="27">
<path fill-rule="evenodd" clip-rule="evenodd" d="M2.5 2.50061H26.6061V28.4019H2.5V2.50061Z" fill="white"/>
</mask>
<g mask="url(#mask0_75_8059)">
<path fill-rule="evenodd" clip-rule="evenodd" d="M9.0029 21.8006C9.28915 21.8006 9.5754 21.8369 9.8554 21.9119C10.7004 22.1394 11.4342 22.7044 11.8692 23.4631C12.1517 23.9394 12.3079 24.4956 12.3129 25.0631C12.3129 25.8756 12.9654 26.5269 13.7679 26.5269H15.3342C16.1329 26.5269 16.7854 25.8794 16.7892 25.0806C16.7842 24.1981 17.1292 23.3594 17.7604 22.7281C18.3829 22.1056 19.2529 21.7319 20.1229 21.7569C20.6929 21.7706 21.2417 21.9244 21.7254 22.1994C22.4217 22.5981 23.3104 22.3606 23.7129 21.6731L24.5429 20.2894C24.7279 19.9706 24.7817 19.5706 24.6829 19.2019C24.5854 18.8331 24.3404 18.5131 24.0104 18.3244C23.2379 17.8794 22.6867 17.1619 22.4579 16.3019C22.2317 15.4581 22.3554 14.5369 22.7967 13.7781C23.0842 13.2781 23.5054 12.8569 24.0104 12.5669C24.6879 12.1706 24.9254 11.2844 24.5317 10.5944C24.5154 10.5669 24.5004 10.5381 24.4879 10.5081L23.7554 9.23811C23.3567 8.54436 22.4692 8.30561 21.7729 8.70186C21.0204 9.14686 20.1254 9.27436 19.2654 9.04811C18.4067 8.82561 17.6867 8.28186 17.2379 7.51436C16.9504 7.03436 16.7942 6.47561 16.7892 5.90686C16.8004 5.47936 16.6504 5.09561 16.3779 4.81436C16.1067 4.53436 15.7254 4.37561 15.3342 4.37561H13.7679C13.3804 4.37561 13.0179 4.52686 12.7442 4.79936C12.4717 5.07311 12.3229 5.43686 12.3254 5.82436C12.2992 7.65186 10.8054 9.12311 8.99665 9.12311C8.41665 9.11686 7.8579 8.96061 7.3729 8.67061C6.69165 8.28311 5.80165 8.52186 5.4029 9.21561L4.55665 10.6069C4.16915 11.2794 4.40665 12.1681 5.09665 12.5694C6.1204 13.1619 6.75915 14.2669 6.75915 15.4519C6.75915 16.6369 6.1204 17.7406 5.09415 18.3344C4.4079 18.7319 4.1704 19.6156 4.5679 20.3031L5.35665 21.6631C5.55165 22.0144 5.8704 22.2681 6.23915 22.3719C6.60665 22.4744 7.01165 22.4306 7.34915 22.2431C7.8454 21.9519 8.4229 21.8006 9.0029 21.8006M15.3341 28.4019H13.7679C11.9316 28.4019 10.4379 26.9094 10.4379 25.0731C10.4354 24.8469 10.3704 24.6119 10.2491 24.4081C10.0529 24.0656 9.7354 23.8206 9.36915 23.7231C9.0054 23.6256 8.60665 23.6794 8.27915 23.8694C7.49415 24.3069 6.5704 24.4131 5.7254 24.1756C4.88165 23.9369 4.1529 23.3569 3.7254 22.5881L2.94415 21.2419C2.0304 19.6569 2.57415 17.6256 4.15665 16.7106C4.6054 16.4519 4.88415 15.9694 4.88415 15.4519C4.88415 14.9344 4.6054 14.4506 4.15665 14.1919C2.5729 13.2719 2.0304 11.2356 2.9429 9.65061L3.7904 8.25936C4.69165 6.69186 6.72915 6.13936 8.3179 7.05186C8.53415 7.18061 8.76915 7.24561 9.0079 7.24811C9.78665 7.24811 10.4379 6.60561 10.4504 5.81561C10.4454 4.94436 10.7891 4.10811 11.4154 3.47686C12.0441 2.84686 12.8791 2.50061 13.7679 2.50061H15.3341C16.2291 2.50061 17.0991 2.86811 17.7229 3.50686C18.3454 4.14936 18.6891 5.03061 18.6629 5.92436C18.6654 6.12561 18.7316 6.35811 18.8516 6.56186C19.0504 6.89936 19.3641 7.13686 19.7366 7.23436C20.1091 7.32686 20.4991 7.27686 20.8304 7.08061C22.4304 6.16686 24.4666 6.71436 25.3804 8.30186L26.1591 9.65061C26.1791 9.68686 26.1966 9.72186 26.2116 9.75811C27.0391 11.3219 26.4866 13.2906 24.9491 14.1894C24.7254 14.3181 24.5441 14.4981 24.4191 14.7156C24.2254 15.0519 24.1716 15.4519 24.2691 15.8194C24.3691 16.1944 24.6079 16.5056 24.9441 16.6981C25.7029 17.1344 26.2691 17.8694 26.4954 18.7181C26.7216 19.5656 26.5979 20.4856 26.1566 21.2444L25.3266 22.6269C24.4129 24.1969 22.3766 24.7406 20.7929 23.8256C20.5816 23.7044 20.3379 23.6381 20.0954 23.6319H20.0879C19.7266 23.6319 19.3554 23.7856 19.0854 24.0544C18.8116 24.3281 18.6616 24.6931 18.6641 25.0806C18.6554 26.9169 17.1616 28.4019 15.3341 28.4019" fill="#49286D"/>
</g>
<path fill-rule="evenodd" clip-rule="evenodd" d="M14.5562 13.0933C13.2562 13.0933 12.1987 14.152 12.1987 15.452C12.1987 16.752 13.2562 17.8083 14.5562 17.8083C15.8562 17.8083 16.9137 16.752 16.9137 15.452C16.9137 14.152 15.8562 13.0933 14.5562 13.0933M14.5562 19.6833C12.2225 19.6833 10.3237 17.7858 10.3237 15.452C10.3237 13.1183 12.2225 11.2183 14.5562 11.2183C16.89 11.2183 18.7887 13.1183 18.7887 15.452C18.7887 17.7858 16.89 19.6833 14.5562 19.6833" fill="#49286D"/>
</svg>
