<svg width="30" height="30" viewBox="0 0 30 30" fill="none" xmlns="http://www.w3.org/2000/svg">
<path fill-rule="evenodd" clip-rule="evenodd" d="M9.58125 4.375C6.41875 4.375 4.375 6.54125 4.375 9.895V20.105C4.375 23.4587 6.41875 25.625 9.58125 25.625H20.4163C23.58 25.625 25.625 23.4587 25.625 20.105V9.895C25.625 6.54125 23.58 4.375 20.4175 4.375H9.58125ZM20.4163 27.5H9.58125C5.345 27.5 2.5 24.5275 2.5 20.105V9.895C2.5 5.4725 5.345 2.5 9.58125 2.5H20.4175C24.6537 2.5 27.5 5.4725 27.5 9.895V20.105C27.5 24.5275 24.6537 27.5 20.4163 27.5Z" fill="#49286D"/>
<path fill-rule="evenodd" clip-rule="evenodd" d="M13.517 18.9037C13.2782 18.9037 13.037 18.8125 12.8545 18.6287L9.88699 15.6625C9.52074 15.2962 9.52074 14.7037 9.88699 14.3375C10.2532 13.9712 10.8457 13.9712 11.212 14.3375L13.517 16.64L18.787 11.3712C19.1532 11.005 19.7457 11.005 20.112 11.3712C20.4782 11.7375 20.4782 12.33 20.112 12.6962L14.1795 18.6287C13.997 18.8125 13.757 18.9037 13.517 18.9037Z" fill="#49286D"/>
</svg>
