<?xml version="1.0" encoding="utf-8"?>
<!-- Generator: Adobe Illustrator 22.0.1, SVG Export Plug-In . SVG Version: 6.00 Build 0)  -->
<svg version="1.1" id="Слой_1" xmlns="http://www.w3.org/2000/svg" xmlns:xlink="http://www.w3.org/1999/xlink" x="0px" y="0px"
	 viewBox="0 0 1303.5 943.5" style="enable-background:new 0 0 1303.5 943.5;" xml:space="preserve">
<style type="text/css">
	.st0{fill:#48276C;}
	.st1{opacity:0.25;}
	.st2{opacity:0.44;fill:#492767;}
	.st3{opacity:0.46;}
	.st4{fill:#492767;}
</style>
<g>
	<g>
		<path class="st0" d="M947.8,436.3c-27.8,43-67.2,70.3-117.9,82c-50.8,11.7-113.3,10.7-187.5-2.9l7.3-82
			c54.7,11.7,100.1,14.6,136.2,8.8c36.1-5.9,64.2-23.9,84.2-54.2c18.1-27.4,30-67.5,35.7-120.3H647.5c-6.9,71.4-23.2,127-49.2,167.1
			c-27.8,43-67.2,70.3-117.9,82c-22.4,5.2-47.2,7.9-74.2,8.1c56.7,76.8,147.8,126.6,250.5,126.6c144.6,0,266.1-98.6,301-232.3
			C954.7,425.1,951.3,430.9,947.8,436.3z"/>
		<path class="st0" d="M520.7,386.4c17.9-27.1,29.7-66.7,35.5-118.7h-202c-5.6,23.3-8.6,47.6-8.6,72.7c0,35.5,6,69.6,16.9,101.4
			c27.9,2.7,52.5,2.3,73.9-1.1C472.6,434.7,500.7,416.6,520.7,386.4z"/>
		<path class="st0" d="M656.8,29.2c-110.1,0-206.8,57.2-262.1,143.4h524.2C863.6,86.3,766.9,29.2,656.8,29.2z"/>
	</g>
	<g>
		<path class="st0" d="M422.6,808.1l0.7-8.4c3.6,0.7,6.6,0.9,8.9,0.6c2.3-0.3,4-1.4,5.2-3.2c1.2-1.8,1.9-4.5,2.2-8.1l5.3-67.3H455
			l-5.3,67.3c-0.4,5.5-1.6,9.8-3.6,13c-2,3.2-5,5.2-8.8,6.2C433.3,809.1,428.5,809.1,422.6,808.1z"/>
		<path class="st0" d="M497.5,791.7c-6.5,0-12.1-1.3-16.8-3.9c-4.7-2.6-8.3-6.4-10.8-11.3c-2.5-4.9-3.8-10.7-3.8-17.5
			c0-7.7,1.3-14.4,4-20.1c2.7-5.7,6.5-10.2,11.4-13.3c4.9-3.1,10.7-4.7,17.4-4.7c6.5,0,12,1.3,16.7,3.9c4.7,2.6,8.3,6.4,10.9,11.3
			c2.6,4.9,3.8,10.7,3.8,17.5c0,7.8-1.4,14.5-4.1,20.2c-2.7,5.7-6.5,10.1-11.5,13.2C509.9,790.1,504.1,791.7,497.5,791.7z
			 M497.4,783.4c4.7,0,8.7-1.2,12.1-3.6c3.4-2.4,6-5.8,7.8-10.3c1.8-4.5,2.7-9.8,2.7-16c0-7.8-1.8-13.9-5.5-18.1
			c-3.7-4.2-8.9-6.4-15.7-6.4c-4.7,0-8.8,1.2-12.1,3.6c-3.4,2.4-6,5.9-7.8,10.3c-1.8,4.4-2.8,9.8-2.8,16.1c0,7.8,1.8,13.8,5.5,18
			C485.4,781.3,490.6,783.4,497.4,783.4z"/>
		<path class="st0" d="M569.7,791.6c-9.6,0-16.6-2.5-21-7.4c-4.4-4.9-6.3-12-5.7-21.3l3.3-41.2h9.9l-3.3,41.2
			c-1,13.7,4.7,20.5,17.2,20.5c5.8,0,10.3-1.5,13.5-4.5c3.2-3,5.1-7.9,5.5-14.6l3.4-42.6h10l-3.4,41.8c-0.7,9.4-3.5,16.4-8.5,21.1
			C585.7,789.2,578.7,791.6,569.7,791.6z"/>
		<path class="st0" d="M622.7,790.8h-9.9l5.3-69.1h29.3c7.1,0,12.5,1.6,16.4,4.9c3.8,3.2,5.8,7.7,5.8,13.5c0,6.3-2,11.4-6.1,15.1
			c-4,3.7-10.2,5.6-18.5,5.6l4.3-1.5c3.2,0,5.7,0.7,7.7,2.2c1.9,1.5,3.5,4.1,4.6,7.9l6.6,21.4h-10.5l-7.1-23c-0.7-2.6-2-4.3-4-5.2
			c-1.9-0.9-4.3-1.3-7.2-1.3h-15.8l0.6-8.1h20.5c5.1,0,8.9-1.1,11.5-3.2c2.6-2.1,3.8-5.3,3.8-9.5c0-3.7-1.1-6.4-3.3-8.2
			c-2.2-1.8-5.6-2.7-10-2.7h-19.1L622.7,790.8z"/>
		<path class="st0" d="M680.3,790.8l5.4-69.1h7.7l37.8,55.5l-2.7,1l4.5-56.5h9.4l-5.4,69.1h-7.6l-37.7-55.4l2.6-1.1l-4.6,56.5H680.3
			z"/>
		<path class="st0" d="M753.1,790.8l5.4-69.1h44.9l-0.7,8.1h-34.9l-4.2,53h34.9l-0.7,8.1H753.1z M764.1,759.7l0.6-8.2h34.5l-0.7,8.2
			H764.1z"/>
		<path class="st0" d="M826.9,790.8l2.4-31.1l1.6,6.5l-26.2-44.5h11.4l19.5,35.1h-2.4l25-35.1h11.6l-33.1,44.5l2.6-6.5l-2.4,31.1
			H826.9z"/>
	</g>
	<g>
		<path class="st0" d="M439.1,888.2l0.7-8.4c3.6,0.7,6.6,0.9,8.9,0.6c2.3-0.3,4-1.4,5.2-3.2c1.2-1.8,1.9-4.5,2.2-8.1l5.3-67.3h10.1
			l-5.3,67.3c-0.4,5.5-1.6,9.8-3.6,13c-2,3.2-5,5.2-8.8,6.2C449.9,889.3,445,889.2,439.1,888.2z"/>
		<path class="st0" d="M514,871.8c-6.5,0-12.1-1.3-16.8-3.9c-4.7-2.6-8.3-6.4-10.8-11.3c-2.5-4.9-3.8-10.7-3.8-17.5
			c0-7.7,1.3-14.4,4-20.1c2.7-5.7,6.5-10.2,11.4-13.3c4.9-3.1,10.7-4.7,17.4-4.7c6.5,0,12,1.3,16.7,3.9c4.7,2.6,8.3,6.4,10.9,11.3
			c2.6,4.9,3.8,10.7,3.8,17.5c0,7.8-1.4,14.5-4.1,20.2c-2.7,5.7-6.5,10.1-11.5,13.2C526.4,870.2,520.6,871.8,514,871.8z
			 M513.9,863.6c4.7,0,8.7-1.2,12.1-3.6c3.4-2.4,6-5.8,7.8-10.3c1.8-4.5,2.7-9.8,2.7-16c0-7.8-1.8-13.9-5.5-18.1
			c-3.7-4.2-8.9-6.4-15.7-6.4c-4.7,0-8.8,1.2-12.1,3.6c-3.4,2.4-6,5.9-7.8,10.3c-1.8,4.4-2.8,9.8-2.8,16.1c0,7.8,1.8,13.8,5.5,18
			C501.9,861.4,507.1,863.6,513.9,863.6z"/>
		<path class="st0" d="M586.2,871.7c-9.6,0-16.6-2.5-21-7.4c-4.4-4.9-6.3-12-5.7-21.3l3.3-41.2h9.9l-3.3,41.2
			c-1,13.7,4.7,20.5,17.2,20.5c5.8,0,10.3-1.5,13.5-4.5c3.2-3,5.1-7.9,5.5-14.6l3.4-42.6h10l-3.4,41.8c-0.7,9.4-3.5,16.4-8.5,21.1
			C602.2,869.4,595.2,871.7,586.2,871.7z"/>
		<path class="st0" d="M639.2,870.9h-9.9l5.3-69.1H664c7.1,0,12.5,1.6,16.4,4.9c3.8,3.2,5.8,7.7,5.8,13.5c0,6.3-2,11.4-6.1,15.1
			c-4,3.7-10.2,5.6-18.5,5.6l4.3-1.5c3.2,0,5.7,0.7,7.7,2.2c1.9,1.5,3.5,4.1,4.6,7.9l6.6,21.4h-10.5l-7.1-23c-0.7-2.6-2-4.3-4-5.2
			c-1.9-0.9-4.3-1.3-7.2-1.3h-15.8l0.6-8.1h20.5c5.1,0,8.9-1.1,11.5-3.2c2.6-2.1,3.8-5.3,3.8-9.5c0-3.7-1.1-6.4-3.3-8.2
			c-2.2-1.8-5.6-2.7-10-2.7H644L639.2,870.9z"/>
		<path class="st0" d="M696.9,870.9l5.4-69.1h7.7l37.8,55.5l-2.7,1l4.5-56.5h9.4l-5.4,69.1h-7.6l-37.7-55.4l2.6-1.1l-4.6,56.5H696.9
			z"/>
		<path class="st0" d="M773,870.9h-10.5l36.2-69.1h8.3l25.4,69.1h-9.9L801,809.4h3.1L773,870.9z M777.2,853.9l4.3-8h35.9l2.9,8
			H777.2z"/>
		<path class="st0" d="M841.6,870.9l5.4-69.1h10.1l-4.9,60.8h33.6l-0.6,8.3H841.6z"/>
	</g>
</g>
</svg>
