<?xml version="1.0" encoding="utf-8"?>
<!-- Generator: Adobe Illustrator 22.0.1, SVG Export Plug-In . SVG Version: 6.00 Build 0)  -->
<svg version="1.1" id="Слой_1" xmlns="http://www.w3.org/2000/svg" xmlns:xlink="http://www.w3.org/1999/xlink" x="0px" y="0px"
	 viewBox="0 0 1303.5 943.5" style="enable-background:new 0 0 1303.5 943.5;" xml:space="preserve">
<style type="text/css">
	.st0{fill:#48276C;}
	.st1{opacity:0.25;}
	.st2{opacity:0.44;fill:#492767;}
	.st3{opacity:0.46;}
	.st4{fill:#492767;}
</style>
<g>
	<path class="st0" d="M1097.7,616.4c-41.9,64.7-101.2,105.9-177.7,123.6c-76.5,17.7-170.7,16.2-282.5-4.4l11-123.6
		c82.4,17.7,150.8,22.1,205.2,13.2c54.4-8.8,96.7-36.1,126.9-81.7c27.2-41.2,45.1-101.7,53.8-181.3H645.4
		c-10.3,107.5-35,191.4-74.1,251.7c-41.9,64.7-101.2,105.9-177.7,123.6c-33.8,7.8-71,11.8-111.7,12.2
		c85.3,115.7,222.6,190.7,377.4,190.7c217.8,0,400.9-148.6,453.5-349.9C1108.1,599.6,1103,608.2,1097.7,616.4z"/>
	<path class="st0" d="M454.4,541.1c26.9-40.8,44.8-100.4,53.5-178.9H203.5c-8.4,35.1-12.9,71.8-12.9,109.5
		c0,53.5,9,104.9,25.5,152.8c42,4,79.1,3.5,111.4-1.7C381.9,614,424.2,586.7,454.4,541.1z"/>
	<path class="st0" d="M659.3,3.1c-165.8,0-311.5,86.1-394.9,216.1h789.7C970.9,89.2,825.2,3.1,659.3,3.1z"/>
</g>
</svg>
